<?xml version="1.0" encoding="UTF-8"?>
<svg xmlns="http://www.w3.org/2000/svg" width="1200" height="640" viewBox="0 0 1200 640" fill="none">
  <defs>
    <linearGradient id="bg" x1="0" y1="0" x2="1200" y2="640" gradientUnits="userSpaceOnUse">
      <stop stop-color="#FFFFFF"/>
      <stop offset="0.58" stop-color="#F4F3FB"/>
      <stop offset="1" stop-color="#EAE8FF"/>
    </linearGradient>
    <linearGradient id="violet" x1="0" y1="0" x2="1200" y2="640" gradientUnits="userSpaceOnUse">
      <stop stop-color="#6C63E8"/>
      <stop offset="1" stop-color="#5046C8"/>
    </linearGradient>
    <filter id="soft" x="-20%" y="-20%" width="140%" height="140%" color-interpolation-filters="sRGB">
      <feDropShadow dx="0" dy="10" stdDeviation="12" flood-color="#433791" flood-opacity="0.10"/>
    </filter>
    <style>
      .display{font-family:Sora,Inter,Arial,sans-serif;font-size:46px;font-weight:700;letter-spacing:-1.2px;fill:#080F14}
      .title{font-family:Sora,Inter,Arial,sans-serif;font-size:25px;font-weight:700;letter-spacing:-.25px;fill:#080F14}
      .body{font-family:Inter,Arial,sans-serif;font-size:17px;font-weight:500;fill:#495467}
      .label{font-family:Inter,Arial,sans-serif;font-size:13px;font-weight:700;fill:#495467}
      .caption{font-family:Inter,Arial,sans-serif;font-size:12px;font-weight:700;fill:#7E8998}
      .tiny{font-family:Inter,Arial,sans-serif;font-size:11px;font-weight:700;fill:#7E8998}
    </style>
  </defs>
  <rect width="1200" height="640" rx="0" fill="url(#bg)"/>
  <path d="M82 92 C162 42 235 58 304 116 C377 178 470 165 528 102" stroke="#EAE8FF" stroke-width="22" stroke-linecap="round" opacity=".72"/>
  <path d="M77 532 L77 582 L127 582" stroke="#6C63E8" stroke-width="9" stroke-linecap="round" stroke-linejoin="round"/>
  <circle cx="146" cy="582" r="7" fill="#0FB5A6"/>
  <path d="M103 554 h18 M103 568 h18 M103 582 h18" stroke="#5046C8" stroke-width="4" stroke-linecap="round"/>
  <text x="72" y="92" class="caption">LNDRY launch asset</text>
  <text x="72" y="148" class="display">Founder information</text>
  <text x="74" y="190" class="body">A premium founder block without inventing biography.</text>
  <text x="74" y="220" class="body">Use real founder name, photo, and note before publishing.</text>
  
    <g transform="translate(588 96)">
      <rect width="536" height="416" rx="28" fill="#fff" stroke="#E7E8F0" filter="url(#soft)"/>
      <circle cx="104" cy="104" r="58" fill="#EAE8FF" stroke="#6C63E8" stroke-width="5"/>
      <path d="M78 116 C92 88 118 88 132 116" stroke="#6C63E8" stroke-width="7" stroke-linecap="round"/>
      <circle cx="104" cy="82" r="20" fill="#fff" stroke="#6C63E8" stroke-width="5"/>
      <text x="190" y="78" class="title">Founder name</text>
      <text x="190" y="112" class="body">Founder, LNDRY</text>
      <rect x="190" y="136" width="174" height="38" rx="19" fill="#FFFFFF" stroke="#6C63E8"/>
  <circle cx="212" cy="155" r="5" fill="#6C63E8"/>
  <text x="228" y="160" class="label" fill="#5046C8">Pune based</text>
      <rect x="48" y="208" width="440" height="128" rx="20" fill="#F4F3FB" stroke="#E7E8F0"/>
      <text x="76" y="250" class="body">Add a short human note about why LNDRY exists,</text>
      <text x="76" y="280" class="body">how partner quality is handled, and what launch</text>
      <text x="76" y="310" class="body">customers can expect.</text>
      <rect x="48" y="360" width="202" height="38" rx="19" fill="#DDF7F3" stroke="#0FB5A6"/>
  <circle cx="70" cy="379" r="5" fill="#0FB5A6"/>
  <text x="86" y="384" class="label" fill="#0FB5A6">Replace before launch</text>
    </g>
</svg>