<?xml version="1.0" encoding="UTF-8"?>
<svg xmlns="http://www.w3.org/2000/svg" width="1200" height="640" viewBox="0 0 1200 640" fill="none">
  <defs>
    <linearGradient id="bg" x1="0" y1="0" x2="1200" y2="640" gradientUnits="userSpaceOnUse">
      <stop stop-color="#FFFFFF"/>
      <stop offset="0.58" stop-color="#F4F3FB"/>
      <stop offset="1" stop-color="#EAE8FF"/>
    </linearGradient>
    <linearGradient id="violet" x1="0" y1="0" x2="1200" y2="640" gradientUnits="userSpaceOnUse">
      <stop stop-color="#6C63E8"/>
      <stop offset="1" stop-color="#5046C8"/>
    </linearGradient>
    <filter id="soft" x="-20%" y="-20%" width="140%" height="140%" color-interpolation-filters="sRGB">
      <feDropShadow dx="0" dy="10" stdDeviation="12" flood-color="#433791" flood-opacity="0.10"/>
    </filter>
    <style>
      .display{font-family:Sora,Inter,Arial,sans-serif;font-size:46px;font-weight:700;letter-spacing:-1.2px;fill:#080F14}
      .title{font-family:Sora,Inter,Arial,sans-serif;font-size:25px;font-weight:700;letter-spacing:-.25px;fill:#080F14}
      .body{font-family:Inter,Arial,sans-serif;font-size:17px;font-weight:500;fill:#495467}
      .label{font-family:Inter,Arial,sans-serif;font-size:13px;font-weight:700;fill:#495467}
      .caption{font-family:Inter,Arial,sans-serif;font-size:12px;font-weight:700;fill:#7E8998}
      .tiny{font-family:Inter,Arial,sans-serif;font-size:11px;font-weight:700;fill:#7E8998}
    </style>
  </defs>
  <rect width="1200" height="640" rx="0" fill="url(#bg)"/>
  <path d="M82 92 C162 42 235 58 304 116 C377 178 470 165 528 102" stroke="#EAE8FF" stroke-width="22" stroke-linecap="round" opacity=".72"/>
  <path d="M77 532 L77 582 L127 582" stroke="#6C63E8" stroke-width="9" stroke-linecap="round" stroke-linejoin="round"/>
  <circle cx="146" cy="582" r="7" fill="#0FB5A6"/>
  <path d="M103 554 h18 M103 568 h18 M103 582 h18" stroke="#5046C8" stroke-width="4" stroke-linecap="round"/>
  <text x="72" y="92" class="caption">LNDRY launch asset</text>
  <text x="72" y="148" class="display">Legal page cards</text>
  <text x="74" y="190" class="body">A polished entry point for mandatory policies.</text>
  <text x="74" y="220" class="body">Four policy tiles for footer, legal hub, or launch checklist.</text>
  
    <g transform="translate(592 116)">
      <rect x="0" y="0" width="224" height="110" rx="20" fill="#fff" stroke="#E7E8F0" filter="url(#soft)"/>
        <path d="M28 30 h48 M28 50 h70 M28 70 h56" stroke="#6C63E8" stroke-width="5" stroke-linecap="round"/>
        <text x="28" y="96" class="label">Privacy Policy</text><rect x="252" y="0" width="224" height="110" rx="20" fill="#fff" stroke="#E7E8F0" filter="url(#soft)"/>
        <path d="M280 30 h48 M280 50 h70 M280 70 h56" stroke="#6C63E8" stroke-width="5" stroke-linecap="round"/>
        <text x="280" y="96" class="label">Terms &amp; Conditions</text><rect x="0" y="138" width="224" height="110" rx="20" fill="#fff" stroke="#E7E8F0" filter="url(#soft)"/>
        <path d="M28 168 h48 M28 188 h70 M28 208 h56" stroke="#6C63E8" stroke-width="5" stroke-linecap="round"/>
        <text x="28" y="234" class="label">Refund &amp; Cancellation</text><rect x="252" y="138" width="224" height="110" rx="20" fill="#fff" stroke="#E7E8F0" filter="url(#soft)"/>
        <path d="M280 168 h48 M280 188 h70 M280 208 h56" stroke="#6C63E8" stroke-width="5" stroke-linecap="round"/>
        <text x="280" y="234" class="label">Delivery Policy</text>
    </g>
</svg>