<?xml version="1.0" encoding="UTF-8"?>
<svg xmlns="http://www.w3.org/2000/svg" width="1200" height="640" viewBox="0 0 1200 640" fill="none">
  <defs>
    <linearGradient id="bg" x1="0" y1="0" x2="1200" y2="640" gradientUnits="userSpaceOnUse">
      <stop stop-color="#FFFFFF"/>
      <stop offset="0.58" stop-color="#F4F3FB"/>
      <stop offset="1" stop-color="#EAE8FF"/>
    </linearGradient>
    <linearGradient id="violet" x1="0" y1="0" x2="1200" y2="640" gradientUnits="userSpaceOnUse">
      <stop stop-color="#6C63E8"/>
      <stop offset="1" stop-color="#5046C8"/>
    </linearGradient>
    <filter id="soft" x="-20%" y="-20%" width="140%" height="140%" color-interpolation-filters="sRGB">
      <feDropShadow dx="0" dy="10" stdDeviation="12" flood-color="#433791" flood-opacity="0.10"/>
    </filter>
    <style>
      .display{font-family:Sora,Inter,Arial,sans-serif;font-size:46px;font-weight:700;letter-spacing:-1.2px;fill:#080F14}
      .title{font-family:Sora,Inter,Arial,sans-serif;font-size:25px;font-weight:700;letter-spacing:-.25px;fill:#080F14}
      .body{font-family:Inter,Arial,sans-serif;font-size:17px;font-weight:500;fill:#495467}
      .label{font-family:Inter,Arial,sans-serif;font-size:13px;font-weight:700;fill:#495467}
      .caption{font-family:Inter,Arial,sans-serif;font-size:12px;font-weight:700;fill:#7E8998}
      .tiny{font-family:Inter,Arial,sans-serif;font-size:11px;font-weight:700;fill:#7E8998}
    </style>
  </defs>
  <rect width="1200" height="640" rx="0" fill="url(#bg)"/>
  <path d="M82 92 C162 42 235 58 304 116 C377 178 470 165 528 102" stroke="#EAE8FF" stroke-width="22" stroke-linecap="round" opacity=".72"/>
  <path d="M77 532 L77 582 L127 582" stroke="#6C63E8" stroke-width="9" stroke-linecap="round" stroke-linejoin="round"/>
  <circle cx="146" cy="582" r="7" fill="#0FB5A6"/>
  <path d="M103 554 h18 M103 568 h18 M103 582 h18" stroke="#5046C8" stroke-width="4" stroke-linecap="round"/>
  <text x="72" y="92" class="caption">LNDRY launch asset</text>
  <text x="72" y="148" class="display">Testimonials after pilot</text>
  <text x="74" y="190" class="body">A future-proof proof section without fake reviews.</text>
  <text x="74" y="220" class="body">Keep hidden until real customer feedback exists.</text>
  
    <g transform="translate(568 88)">
      <rect width="562" height="424" rx="28" fill="#fff" stroke="#E7E8F0" filter="url(#soft)"/>
      <text x="38" y="58" class="title">Customer stories after pilot</text>
      <rect x="38" y="92" width="486" height="74" rx="18" fill="#F4F3FB" stroke="#E7E8F0"/><circle cx="72" cy="129" r="18" fill="#EAE8FF" stroke="#6C63E8" stroke-width="3"/><text x="112" y="122" class="label">Real review placeholder</text><text x="112" y="146" class="caption">Add only after pilot launch or verified order feedback.</text><rect x="38" y="188" width="486" height="74" rx="18" fill="#F4F3FB" stroke="#E7E8F0"/><circle cx="72" cy="225" r="18" fill="#EAE8FF" stroke="#6C63E8" stroke-width="3"/><text x="112" y="218" class="label">Real review placeholder</text><text x="112" y="242" class="caption">Add only after pilot launch or verified order feedback.</text><rect x="38" y="284" width="486" height="74" rx="18" fill="#F4F3FB" stroke="#E7E8F0"/><circle cx="72" cy="321" r="18" fill="#EAE8FF" stroke="#6C63E8" stroke-width="3"/><text x="112" y="314" class="label">Real review placeholder</text><text x="112" y="338" class="caption">Add only after pilot launch or verified order feedback.</text>
      <rect x="38" y="370" width="206" height="38" rx="19" fill="#DDF7F3" stroke="#0FB5A6"/>
  <circle cx="60" cy="389" r="5" fill="#0FB5A6"/>
  <text x="76" y="394" class="label" fill="#0FB5A6">Do not fake testimonials</text>
    </g>
</svg>