<?xml version="1.0" encoding="UTF-8"?>
<svg xmlns="http://www.w3.org/2000/svg" width="1200" height="640" viewBox="0 0 1200 640" fill="none">
  <defs>
    <linearGradient id="bg" x1="0" y1="0" x2="1200" y2="640" gradientUnits="userSpaceOnUse">
      <stop stop-color="#FFFFFF"/>
      <stop offset="0.58" stop-color="#F4F3FB"/>
      <stop offset="1" stop-color="#EAE8FF"/>
    </linearGradient>
    <linearGradient id="violet" x1="0" y1="0" x2="1200" y2="640" gradientUnits="userSpaceOnUse">
      <stop stop-color="#6C63E8"/>
      <stop offset="1" stop-color="#5046C8"/>
    </linearGradient>
    <filter id="soft" x="-20%" y="-20%" width="140%" height="140%" color-interpolation-filters="sRGB">
      <feDropShadow dx="0" dy="10" stdDeviation="12" flood-color="#433791" flood-opacity="0.10"/>
    </filter>
    <style>
      .display{font-family:Sora,Inter,Arial,sans-serif;font-size:46px;font-weight:700;letter-spacing:-1.2px;fill:#080F14}
      .title{font-family:Sora,Inter,Arial,sans-serif;font-size:25px;font-weight:700;letter-spacing:-.25px;fill:#080F14}
      .body{font-family:Inter,Arial,sans-serif;font-size:17px;font-weight:500;fill:#495467}
      .label{font-family:Inter,Arial,sans-serif;font-size:13px;font-weight:700;fill:#495467}
      .caption{font-family:Inter,Arial,sans-serif;font-size:12px;font-weight:700;fill:#7E8998}
      .tiny{font-family:Inter,Arial,sans-serif;font-size:11px;font-weight:700;fill:#7E8998}
    </style>
  </defs>
  <rect width="1200" height="640" rx="0" fill="url(#bg)"/>
  <path d="M82 92 C162 42 235 58 304 116 C377 178 470 165 528 102" stroke="#EAE8FF" stroke-width="22" stroke-linecap="round" opacity=".72"/>
  <path d="M77 532 L77 582 L127 582" stroke="#6C63E8" stroke-width="9" stroke-linecap="round" stroke-linejoin="round"/>
  <circle cx="146" cy="582" r="7" fill="#0FB5A6"/>
  <path d="M103 554 h18 M103 568 h18 M103 582 h18" stroke="#5046C8" stroke-width="4" stroke-linecap="round"/>
  <text x="72" y="92" class="caption">LNDRY launch asset</text>
  <text x="72" y="148" class="display">Partner benefit grid</text>
  <text x="74" y="190" class="body">For the Partner With Us page.</text>
  <text x="74" y="220" class="body">Matches the client’s requested vendor-acquisition story.</text>
  
    <g transform="translate(566 72)">
      <g filter="url(#soft)">
    <rect x="0" y="0" width="266" height="94" rx="18" fill="#FFFFFF" stroke="#E7E8F0"/>
    <path d="M24 28 L24 52 L48 52" stroke="#6C63E8" stroke-width="4" stroke-linecap="round" stroke-linejoin="round"/>
    <circle cx="59" cy="52" r="5" fill="#0FB5A6"/>
    <text x="82" y="40" class="title">Recurring customers</text>
    <text x="82" y="68" class="body">Repeat demand from your area</text>
    
  </g><g filter="url(#soft)">
    <rect x="292" y="0" width="266" height="94" rx="18" fill="#FFFFFF" stroke="#E7E8F0"/>
    <path d="M316 28 L316 52 L340 52" stroke="#6C63E8" stroke-width="4" stroke-linecap="round" stroke-linejoin="round"/>
    <circle cx="351" cy="52" r="5" fill="#0FB5A6"/>
    <text x="374" y="40" class="title">More orders</text>
    <text x="374" y="68" class="body">Better capacity utilization</text>
    
  </g><g filter="url(#soft)">
    <rect x="0" y="126" width="266" height="94" rx="18" fill="#FFFFFF" stroke="#E7E8F0"/>
    <path d="M24 154 L24 178 L48 178" stroke="#6C63E8" stroke-width="4" stroke-linecap="round" stroke-linejoin="round"/>
    <circle cx="59" cy="178" r="5" fill="#0FB5A6"/>
    <text x="82" y="166" class="title">Digital presence</text>
    <text x="82" y="194" class="body">Your shop appears online</text>
    
  </g><g filter="url(#soft)">
    <rect x="292" y="126" width="266" height="94" rx="18" fill="#FFFFFF" stroke="#E7E8F0"/>
    <path d="M316 154 L316 178 L340 178" stroke="#6C63E8" stroke-width="4" stroke-linecap="round" stroke-linejoin="round"/>
    <circle cx="351" cy="178" r="5" fill="#0FB5A6"/>
    <text x="374" y="166" class="title">Tech support</text>
    <text x="374" y="194" class="body">Booking and status tools</text>
    
  </g><g filter="url(#soft)">
    <rect x="0" y="252" width="266" height="94" rx="18" fill="#FFFFFF" stroke="#E7E8F0"/>
    <path d="M24 280 L24 304 L48 304" stroke="#6C63E8" stroke-width="4" stroke-linecap="round" stroke-linejoin="round"/>
    <circle cx="59" cy="304" r="5" fill="#0FB5A6"/>
    <text x="82" y="292" class="title">Zero marketing spend</text>
    <text x="82" y="320" class="body">LNDRY brings demand</text>
    
  </g><g filter="url(#soft)">
    <rect x="292" y="252" width="266" height="94" rx="18" fill="#FFFFFF" stroke="#E7E8F0"/>
    <path d="M316 280 L316 304 L340 304" stroke="#6C63E8" stroke-width="4" stroke-linecap="round" stroke-linejoin="round"/>
    <circle cx="351" cy="304" r="5" fill="#0FB5A6"/>
    <text x="374" y="292" class="title">Grow business</text>
    <text x="374" y="320" class="body">Expand with measured capacity</text>
    
  </g>
    </g>
</svg>