<?xml version="1.0" encoding="UTF-8"?>
<svg xmlns="http://www.w3.org/2000/svg" width="1200" height="640" viewBox="0 0 1200 640" fill="none">
  <defs>
    <linearGradient id="bg" x1="0" y1="0" x2="1200" y2="640" gradientUnits="userSpaceOnUse">
      <stop stop-color="#FFFFFF"/>
      <stop offset="0.58" stop-color="#F4F3FB"/>
      <stop offset="1" stop-color="#EAE8FF"/>
    </linearGradient>
    <linearGradient id="violet" x1="0" y1="0" x2="1200" y2="640" gradientUnits="userSpaceOnUse">
      <stop stop-color="#6C63E8"/>
      <stop offset="1" stop-color="#5046C8"/>
    </linearGradient>
    <filter id="soft" x="-20%" y="-20%" width="140%" height="140%" color-interpolation-filters="sRGB">
      <feDropShadow dx="0" dy="10" stdDeviation="12" flood-color="#433791" flood-opacity="0.10"/>
    </filter>
    <style>
      .display{font-family:Sora,Inter,Arial,sans-serif;font-size:46px;font-weight:700;letter-spacing:-1.2px;fill:#080F14}
      .title{font-family:Sora,Inter,Arial,sans-serif;font-size:25px;font-weight:700;letter-spacing:-.25px;fill:#080F14}
      .body{font-family:Inter,Arial,sans-serif;font-size:17px;font-weight:500;fill:#495467}
      .label{font-family:Inter,Arial,sans-serif;font-size:13px;font-weight:700;fill:#495467}
      .caption{font-family:Inter,Arial,sans-serif;font-size:12px;font-weight:700;fill:#7E8998}
      .tiny{font-family:Inter,Arial,sans-serif;font-size:11px;font-weight:700;fill:#7E8998}
    </style>
  </defs>
  <rect width="1200" height="640" rx="0" fill="url(#bg)"/>
  <path d="M82 92 C162 42 235 58 304 116 C377 178 470 165 528 102" stroke="#EAE8FF" stroke-width="22" stroke-linecap="round" opacity=".72"/>
  <path d="M77 532 L77 582 L127 582" stroke="#6C63E8" stroke-width="9" stroke-linecap="round" stroke-linejoin="round"/>
  <circle cx="146" cy="582" r="7" fill="#0FB5A6"/>
  <path d="M103 554 h18 M103 568 h18 M103 582 h18" stroke="#5046C8" stroke-width="4" stroke-linecap="round"/>
  <text x="72" y="92" class="caption">LNDRY launch asset</text>
  <text x="72" y="148" class="display">Future wardrobe care</text>
  <text x="74" y="190" class="body">Phase 3 story for upcoming expansion.</text>
  <text x="74" y="220" class="body">Clear future framing for shoes, bags, tailoring, care, repairs.</text>
  
    <g transform="translate(556 148)">
      <circle cx="54" cy="70" r="48" fill="#fff" stroke="#E7E8F0" filter="url(#soft)"/>
        <path d="M34 66 h42 M38 84 h32" stroke="#6C63E8" stroke-width="5" stroke-linecap="round"/>
        <text x="54" y="146" text-anchor="middle" class="caption">Shoe cleaning</text><circle cx="162" cy="70" r="48" fill="#fff" stroke="#E7E8F0" filter="url(#soft)"/>
        <path d="M142 66 h42 M146 84 h32" stroke="#6C63E8" stroke-width="5" stroke-linecap="round"/>
        <text x="162" y="146" text-anchor="middle" class="caption">Bag cleaning</text><circle cx="270" cy="70" r="48" fill="#fff" stroke="#E7E8F0" filter="url(#soft)"/>
        <path d="M250 66 h42 M254 84 h32" stroke="#6C63E8" stroke-width="5" stroke-linecap="round"/>
        <text x="270" y="146" text-anchor="middle" class="caption">Tailoring</text><circle cx="378" cy="70" r="48" fill="#fff" stroke="#E7E8F0" filter="url(#soft)"/>
        <path d="M358 66 h42 M362 84 h32" stroke="#6C63E8" stroke-width="5" stroke-linecap="round"/>
        <text x="378" y="146" text-anchor="middle" class="caption">Premium garment care</text><circle cx="486" cy="70" r="48" fill="#fff" stroke="#E7E8F0" filter="url(#soft)"/>
        <path d="M466 66 h42 M470 84 h32" stroke="#0FB5A6" stroke-width="5" stroke-linecap="round"/>
        <text x="486" y="146" text-anchor="middle" class="caption">Repairs</text>
    </g>
</svg>