<?xml version="1.0" encoding="UTF-8"?>
<svg xmlns="http://www.w3.org/2000/svg" width="1200" height="640" viewBox="0 0 1200 640" fill="none">
  <defs>
    <linearGradient id="bg" x1="0" y1="0" x2="1200" y2="640" gradientUnits="userSpaceOnUse">
      <stop stop-color="#FFFFFF"/>
      <stop offset="0.58" stop-color="#F4F3FB"/>
      <stop offset="1" stop-color="#EAE8FF"/>
    </linearGradient>
    <linearGradient id="violet" x1="0" y1="0" x2="1200" y2="640" gradientUnits="userSpaceOnUse">
      <stop stop-color="#6C63E8"/>
      <stop offset="1" stop-color="#5046C8"/>
    </linearGradient>
    <filter id="soft" x="-20%" y="-20%" width="140%" height="140%" color-interpolation-filters="sRGB">
      <feDropShadow dx="0" dy="10" stdDeviation="12" flood-color="#433791" flood-opacity="0.10"/>
    </filter>
    <style>
      .display{font-family:Sora,Inter,Arial,sans-serif;font-size:46px;font-weight:700;letter-spacing:-1.2px;fill:#080F14}
      .title{font-family:Sora,Inter,Arial,sans-serif;font-size:25px;font-weight:700;letter-spacing:-.25px;fill:#080F14}
      .body{font-family:Inter,Arial,sans-serif;font-size:17px;font-weight:500;fill:#495467}
      .label{font-family:Inter,Arial,sans-serif;font-size:13px;font-weight:700;fill:#495467}
      .caption{font-family:Inter,Arial,sans-serif;font-size:12px;font-weight:700;fill:#7E8998}
      .tiny{font-family:Inter,Arial,sans-serif;font-size:11px;font-weight:700;fill:#7E8998}
    </style>
  </defs>
  <rect width="1200" height="640" rx="0" fill="url(#bg)"/>
  <path d="M82 92 C162 42 235 58 304 116 C377 178 470 165 528 102" stroke="#EAE8FF" stroke-width="22" stroke-linecap="round" opacity=".72"/>
  <path d="M77 532 L77 582 L127 582" stroke="#6C63E8" stroke-width="9" stroke-linecap="round" stroke-linejoin="round"/>
  <circle cx="146" cy="582" r="7" fill="#0FB5A6"/>
  <path d="M103 554 h18 M103 568 h18 M103 582 h18" stroke="#5046C8" stroke-width="4" stroke-linecap="round"/>
  <text x="72" y="92" class="caption">LNDRY launch asset</text>
  <text x="72" y="148" class="display">Location SEO template</text>
  <text x="74" y="190" class="body">For Baner, Wakad, Hinjewadi, Kharadi, and more.</text>
  <text x="74" y="220" class="body">Keeps local pages visual but avoids fake availability claims.</text>
  
    <g transform="translate(584 72)">
      <rect width="540" height="454" rx="28" fill="#fff" stroke="#E7E8F0" filter="url(#soft)"/>
      <rect x="36" y="34" width="468" height="104" rx="22" fill="#EAE8FF"/>
      <text x="62" y="78" class="title">Laundry service in [Area]</text>
      <text x="62" y="110" class="body">Launching area page structure</text>
      <path d="M58 194 C132 138 252 148 302 210 C350 270 434 234 478 290" stroke="#6C63E8" stroke-width="8" stroke-linecap="round"/>
      <rect x="44" y="326" width="178" height="38" rx="19" fill="#DDF7F3" stroke="#0FB5A6"/>
  <circle cx="66" cy="345" r="5" fill="#0FB5A6"/>
  <text x="82" y="350" class="label" fill="#0FB5A6">Baner</text><rect x="276" y="326" width="178" height="38" rx="19" fill="#EAE8FF" stroke="#E7E8F0"/>
  <circle cx="298" cy="345" r="5" fill="#6C63E8"/>
  <text x="314" y="350" class="label" fill="#495467">Balewadi</text><rect x="44" y="380" width="178" height="38" rx="19" fill="#EAE8FF" stroke="#E7E8F0"/>
  <circle cx="66" cy="399" r="5" fill="#6C63E8"/>
  <text x="82" y="404" class="label" fill="#495467">Wakad</text><rect x="276" y="380" width="178" height="38" rx="19" fill="#EAE8FF" stroke="#E7E8F0"/>
  <circle cx="298" cy="399" r="5" fill="#6C63E8"/>
  <text x="314" y="404" class="label" fill="#495467">Hinjewadi</text>
    </g>
</svg>