<?xml version="1.0" encoding="UTF-8"?>
<svg xmlns="http://www.w3.org/2000/svg" width="1200" height="640" viewBox="0 0 1200 640" fill="none">
  <defs>
    <linearGradient id="bg" x1="0" y1="0" x2="1200" y2="640" gradientUnits="userSpaceOnUse">
      <stop stop-color="#FFFFFF"/>
      <stop offset="0.58" stop-color="#F4F3FB"/>
      <stop offset="1" stop-color="#EAE8FF"/>
    </linearGradient>
    <linearGradient id="violet" x1="0" y1="0" x2="1200" y2="640" gradientUnits="userSpaceOnUse">
      <stop stop-color="#6C63E8"/>
      <stop offset="1" stop-color="#5046C8"/>
    </linearGradient>
    <filter id="soft" x="-20%" y="-20%" width="140%" height="140%" color-interpolation-filters="sRGB">
      <feDropShadow dx="0" dy="10" stdDeviation="12" flood-color="#433791" flood-opacity="0.10"/>
    </filter>
    <style>
      .display{font-family:Sora,Inter,Arial,sans-serif;font-size:46px;font-weight:700;letter-spacing:-1.2px;fill:#080F14}
      .title{font-family:Sora,Inter,Arial,sans-serif;font-size:25px;font-weight:700;letter-spacing:-.25px;fill:#080F14}
      .body{font-family:Inter,Arial,sans-serif;font-size:17px;font-weight:500;fill:#495467}
      .label{font-family:Inter,Arial,sans-serif;font-size:13px;font-weight:700;fill:#495467}
      .caption{font-family:Inter,Arial,sans-serif;font-size:12px;font-weight:700;fill:#7E8998}
      .tiny{font-family:Inter,Arial,sans-serif;font-size:11px;font-weight:700;fill:#7E8998}
    </style>
  </defs>
  <rect width="1200" height="640" rx="0" fill="url(#bg)"/>
  <path d="M82 92 C162 42 235 58 304 116 C377 178 470 165 528 102" stroke="#EAE8FF" stroke-width="22" stroke-linecap="round" opacity=".72"/>
  <path d="M77 532 L77 582 L127 582" stroke="#6C63E8" stroke-width="9" stroke-linecap="round" stroke-linejoin="round"/>
  <circle cx="146" cy="582" r="7" fill="#0FB5A6"/>
  <path d="M103 554 h18 M103 568 h18 M103 582 h18" stroke="#5046C8" stroke-width="4" stroke-linecap="round"/>
  <text x="72" y="92" class="caption">LNDRY launch asset</text>
  <text x="72" y="148" class="display">Smart partner recommendation</text>
  <text x="74" y="190" class="body">Address first, one eligible partner next.</text>
  <text x="74" y="220" class="body">Use this instead of a compare-many-vendors section.</text>
  
    <g transform="translate(604 108)">
      <rect x="0" y="0" width="520" height="420" rx="28" fill="#fff" stroke="#E7E8F0" filter="url(#soft)"/>
      <rect x="34" y="34" width="452" height="58" rx="29" fill="#F4F3FB" stroke="#E7E8F0"/>
      <text x="62" y="70" class="body">Enter pickup area</text>
      <path d="M64 140 C160 88 286 88 394 148 C440 174 462 214 448 252 C432 296 368 322 292 306 C220 291 175 334 116 312 C42 284 20 186 64 140Z" fill="#EAE8FF"/>
      <path d="M106 242 C190 188 276 188 398 238" stroke="#6C63E8" stroke-width="8" stroke-linecap="round"/>
      <circle cx="106" cy="242" r="18" fill="#FFFFFF" stroke="#6C63E8" stroke-width="5"/>
      <circle cx="398" cy="238" r="18" fill="#DDF7F3" stroke="#0FB5A6" stroke-width="5"/>
      <rect x="54" y="316" width="412" height="72" rx="18" fill="#5046C8"/>
      <text x="82" y="348" class="label" fill="#fff">Recommended verified partner</text>
      <text x="82" y="374" class="body" fill="#fff">Book pickup</text>
      <rect x="308" y="338" width="128" height="38" rx="19" fill="#DDF7F3" stroke="#0FB5A6"/>
  <circle cx="330" cy="357" r="5" fill="#0FB5A6"/>
  <text x="346" y="362" class="label" fill="#0FB5A6">Verified</text>
    </g>
</svg>